<svg xmlns="http://www.w3.org/2000/svg" width="30" height="20" viewBox="0 0 30 20"><defs><style>.a{fill:#f0f0f0;}.b{fill:#d80027;}.c{fill:#0052b4;}</style></defs><g transform="translate(0 -85.33)"><rect class="a" width="30" height="20" transform="translate(0 85.33)"/><path class="b" d="M16.875,85.33h-3.75v8.125H0V97.2H13.125v8.125h3.75V97.2H30v-3.75H16.875Z"/><g transform="translate(18.261 98.808)"><path class="c" d="M393.785,315.358l6.927,3.848v-3.848Z" transform="translate(-388.973 -315.358)"/><path class="c" d="M311.652,315.358l11.739,6.522v-1.844l-8.419-4.677Z" transform="translate(-311.652 -315.358)"/><path class="c" d="M320.264,349.783,311.652,345v4.785Z" transform="translate(-311.652 -343.261)"/></g><path class="a" d="M311.652,315.358l11.739,6.522v-1.844l-8.419-4.677Z" transform="translate(-293.391 -216.55)"/><path class="b" d="M311.652,315.358l11.739,6.522v-1.844l-8.419-4.677Z" transform="translate(-293.391 -216.55)"/><g transform="translate(0 98.808)"><path class="c" d="M5.293,315.356,0,318.3v-2.941Z" transform="translate(0 -315.356)"/><path class="c" d="M35.736,329.51V335.2H25.491Z" transform="translate(-23.997 -328.681)"/></g><path class="b" d="M8.419,315.358,0,320.035v1.844H0l11.739-6.522Z" transform="translate(0 -216.55)"/><g transform="translate(0 85.33)"><path class="c" d="M6.927,134.806,0,130.958v3.848Z" transform="translate(0 -128.285)"/><path class="c" d="M11.739,91.852,0,85.33v1.844l8.419,4.677Z" transform="translate(0 -85.33)"/><path class="c" d="M53.366,85.33l8.612,4.785V85.33Z" transform="translate(-50.239 -85.33)"/></g><path class="a" d="M11.739,91.852,0,85.33v1.844l8.419,4.677Z"/><path class="b" d="M11.739,91.852,0,85.33v1.844l8.419,4.677Z"/><g transform="translate(18.261 85.33)"><path class="c" d="M421.659,149.387l5.293-2.941v2.941Z" transform="translate(-415.213 -142.865)"/><path class="c" d="M311.652,91.023V85.331H321.9Z" transform="translate(-311.652 -85.331)"/></g><path class="b" d="M314.972,91.852l8.419-4.677V85.33h0l-11.739,6.522Z" transform="translate(-293.391)"/></g></svg>